<?xml version="1.0" encoding="UTF-8"?>
<svg enable-background="new 0 0 101.61 122.88" version="1.1" viewBox="0 0 101.61 122.88" xml:space="preserve" xmlns="http://www.w3.org/2000/svg"><path d="m97.16 122.89c2.45 0 4.44-1.99 4.44-4.44s-1.99-4.44-4.44-4.44h-41.88v-30.86l14.61 14.9c1.71 1.74 4.52 1.77 6.26 0.05 1.74-1.71 1.77-4.52 0.05-6.26l-22.21-22.65-0.2-0.2-0.05-0.04-0.01-0.01-0.16-0.14-0.01-0.01c-0.05-0.04-0.11-0.08-0.16-0.12h-0.01l-0.07-0.05-0.02-0.01-0.03-0.02c-0.05-0.03-0.1-0.07-0.16-0.1l-0.07-0.04-0.04-0.02-0.07-0.04-0.04-0.02c-0.06-0.03-0.12-0.06-0.17-0.09l-0.01-0.01c-0.09-0.04-0.19-0.08-0.28-0.12h-0.01l-0.08-0.03-0.02-0.01-0.08-0.03-0.02-0.01-0.08-0.02-0.02-0.01-0.03-0.01-0.08-0.02c-0.1-0.03-0.2-0.05-0.3-0.07h-0.02l-0.09-0.02c-0.1-0.02-0.21-0.03-0.31-0.04h-0.01l-0.09-0.01-0.08-0.01h-0.34c-0.07 0-0.13 0-0.2 0.01h-0.01l-0.08 0.01h-0.03l-0.09 0.01-0.08 0.01h-0.02l-0.08 0.01h-0.02l-0.03 0.01-0.07 0.01h-0.01l-0.1 0.02h-0.01l-0.1 0.02-0.08 0.02-0.04 0.02-0.08 0.02h-0.01c-0.06 0.02-0.13 0.04-0.19 0.06h-0.01l-0.08 0.03-0.02 0.01-0.08 0.03-0.02 0.01-0.08 0.03-0.02 0.01-0.03 0.01-0.26 0.13-0.07 0.04-0.09 0.06-0.02 0.01-0.07 0.04-0.04 0.02-0.07 0.04-0.07 0.05-0.02 0.01-0.07 0.05-0.02 0.01-0.02 0.02-0.06 0.05-0.07 0.05-0.02 0.02-0.03 0.02-0.06 0.05-0.02 0.02-0.07 0.06-0.01 0.01c-0.05 0.04-0.1 0.09-0.14 0.13l-0.01 0.01-22.92 22.69c-1.73 1.72-1.74 4.53-0.02 6.26s4.53 1.74 6.26 0.02l15.28-15.15v31.07h-41.95c-2.45 0-4.44 1.99-4.44 4.44s1.99 4.44 4.44 4.44zm-43.91-54.3c-0.05-0.03-0.1-0.07-0.16-0.1z"/><path d="m55.28 38.89v-30h41.89c2.45 0 4.44-1.99 4.44-4.44s-1.99-4.44-4.44-4.44h-92.73c-2.45-0.01-4.44 1.98-4.44 4.43s1.99 4.44 4.44 4.44h41.96v30.22l-15.28-15.15c-1.73-1.72-4.54-1.72-6.26 0.02-1.72 1.73-1.72 4.54 0.02 6.26l22.83 22.65 0.01 0.01c0.05 0.05 0.09 0.09 0.14 0.13l0.01 0.01 0.07 0.06 0.02 0.02 0.06 0.05 0.03 0.02 0.02 0.02 0.07 0.05 0.06 0.05 0.02 0.02 0.02 0.01 0.07 0.05 0.02 0.01 0.07 0.05 0.07 0.04 0.04 0.02 0.07 0.04 0.02 0.01 0.09 0.06 0.07 0.04 0.26 0.13 0.03 0.01 0.02 0.01 0.08 0.03 0.02 0.01 0.08 0.03 0.02 0.01 0.08 0.03h0.01c0.06 0.02 0.13 0.04 0.19 0.06h0.01l0.08 0.02 0.04 0.02 0.08 0.02 0.1 0.02h0.01l0.13 0.04h0.01l0.07 0.01 0.03 0.01h0.02l0.08 0.01h0.02l0.08 0.01 0.09 0.01h0.03l0.08 0.01h0.01c0.07 0 0.13 0.01 0.2 0.01h0.34l0.08-0.01 0.09-0.01h0.01c0.1-0.01 0.21-0.02 0.31-0.04l0.09-0.02h0.02c0.1-0.02 0.2-0.04 0.3-0.07l0.08-0.02 0.03-0.01 0.02-0.01 0.08-0.02 0.02-0.01 0.08-0.03 0.02-0.01 0.08-0.03h0.01c0.1-0.04 0.19-0.08 0.28-0.12l0.01-0.01c0.06-0.03 0.12-0.06 0.17-0.09l0.04-0.02 0.12-0.02 0.02-0.01 0.07-0.04c0.05-0.03 0.11-0.06 0.16-0.1l0.03-0.02 0.02-0.01 0.07-0.05h0.01c0.06-0.04 0.11-0.08 0.16-0.12l0.01-0.01 0.09-0.08 0.08-0.07 0.01-0.01 0.05-0.04 0.2-0.2 22.22-22.65c1.71-1.74 1.69-4.55-0.05-6.26s-4.55-1.69-6.26 0.05z"/></svg>
